<svg width="207" height="36" fill="none" xmlns="http://www.w3.org/2000/svg"><path d="M18.02 36C8.07 36 0 27.93 0 17.98 0 8.07 8.07 0 18.02 0s18.02 8.07 18.02 18.02C36 27.97 27.97 36 18.02 36z" fill="#00D372"/><path d="m47.558 29.302 2.586-5.798-5.171-11.556h3.682l3.29 7.913 3.252-7.913h3.721l-7.717 17.354h-3.643zM57.98 18.057c0-3.565 2.9-6.385 6.464-6.385 3.565 0 6.464 2.82 6.464 6.385 0 3.604-2.9 6.385-6.464 6.385-3.565 0-6.464-2.781-6.464-6.385zm9.48 0c0-1.88-1.292-3.251-3.055-3.251-1.763 0-3.056 1.37-3.056 3.251 0 1.88 1.293 3.251 3.056 3.251 1.763 0 3.055-1.37 3.055-3.25zM71.805 19.039v-7.09h3.369v6.541c0 1.88.626 2.899 2.076 2.899 1.488 0 2.507-1.097 2.507-3.486v-5.955h3.369V24.21h-3.37V22.8c-.665.98-1.801 1.685-3.368 1.685-2.938-.04-4.583-2.194-4.583-5.445zM85.004 11.945h3.369v1.371c.666-.98 1.92-1.684 3.486-1.684 2.977 0 4.74 2.154 4.74 5.327v7.169H93.23v-6.542c0-1.763-.744-2.86-2.154-2.86-1.567 0-2.703 1.136-2.703 3.487v5.993h-3.37v-12.26zM98.052 24.95h3.291c.431 1.215 1.332 1.803 2.781 1.803 1.489 0 2.781-.94 2.781-2.9v-1.449c-.666.901-1.998 1.607-3.564 1.607-3.213 0-5.798-2.743-5.798-6.19 0-3.447 2.585-6.19 5.798-6.19 1.566 0 2.898.706 3.564 1.646v-1.371h3.369v11.478c0 4.426-3.016 6.11-6.189 6.11-3.526.08-5.759-1.919-6.033-4.543zm9.088-7.09c0-1.88-1.41-3.133-3.094-3.133-1.685 0-3.095 1.253-3.095 3.133 0 1.88 1.41 3.134 3.095 3.134 1.684 0 3.094-1.253 3.094-3.134zM115.758 29.3V11.946h3.369v1.371c.548-.783 1.88-1.645 3.564-1.645 3.252 0 5.759 2.938 5.759 6.385 0 3.447-2.507 6.385-5.759 6.385-1.684 0-2.977-.861-3.564-1.645V29.3h-3.369zm9.284-11.243c0-1.92-1.215-3.33-3.095-3.33-1.88 0-3.095 1.41-3.095 3.33 0 1.92 1.215 3.33 3.095 3.33 1.88 0 3.095-1.371 3.095-3.33zM132.912 5.796h-3.369v18.372h3.369V5.796zM134.012 18.057c0-3.447 2.507-6.385 5.758-6.385 1.685 0 2.977.862 3.526 1.645v-1.37h3.369v12.26h-3.369v-1.37c-.549.783-1.841 1.645-3.526 1.645-3.251-.04-5.758-2.978-5.758-6.425zm9.558 0c0-1.92-1.214-3.33-3.095-3.33-1.88 0-3.094 1.41-3.094 3.33 0 1.92 1.214 3.33 3.094 3.33 1.881 0 3.095-1.371 3.095-3.33zM149.796 19.898v-5.014h-2.468v-2.938h2.468V8.538h3.369v3.408h3.447v2.938h-3.447v4.348c0 1.489.627 2.076 2.076 2.076.509 0 .979-.078 1.371-.235v2.978c-.548.156-1.175.274-2.115.274-2.586 0-4.701-1.41-4.701-4.427z" fill="#000"/><path d="M158.964 14.884h-2.468v-2.938h2.468V10.34c0-3.016 2.076-4.661 4.701-4.661.94 0 1.567.117 2.115.274V8.93c-.392-.157-.862-.235-1.371-.235-1.489 0-2.076.588-2.076 2.076v1.175h3.447v2.938h-3.447v9.323h-3.369v-9.323zM165.273 18.057c0-3.565 2.899-6.385 6.464-6.385 3.565 0 6.464 2.82 6.464 6.385 0 3.604-2.899 6.385-6.464 6.385-3.565 0-6.464-2.781-6.464-6.385zm9.48 0c0-1.88-1.292-3.251-3.055-3.251-1.763 0-3.056 1.37-3.056 3.251 0 1.88 1.293 3.251 3.056 3.251 1.763 0 3.055-1.37 3.055-3.25zM179.254 11.946h3.369v1.958c.431-1.214 1.684-2.115 3.055-2.115.353 0 .705.04 1.136.157v3.408c-.509-.157-.94-.274-1.527-.274-1.607 0-2.664 1.214-2.664 3.251v5.876h-3.369V11.946zM203.032 17.665c0-1.842-.548-2.9-1.919-2.9-1.45 0-2.39 1.058-2.468 3.291v6.15h-3.369v-6.541c0-1.842-.549-2.9-1.92-2.9-1.488 0-2.468 1.137-2.468 3.487v5.994h-3.368v-12.3h3.368v1.37c.666-.94 1.763-1.684 3.252-1.684 1.763 0 3.055.862 3.8 2.272.744-1.489 2.428-2.272 3.799-2.272 2.938 0 4.584 2.076 4.584 5.406v7.09h-3.369v-6.463h.078z" fill="#000"/><path d="m24.325 11.754-6.307 6.307-3.839-3.878-2.546 2.546 6.385 6.346 2.507-2.507 1.293-1.254 1.253-1.253 1.254-1.254 2.507-2.546-2.507-2.507zM14.236 21.824l-2.521 2.52 2.52 2.521 2.521-2.52-2.52-2.52z" fill="#fff"/></svg>